<svg xmlns="http://www.w3.org/2000/svg" width="694.9876708984375" height="672.341064453125" viewBox="-243.4342803955078 -163.17352294921875 694.9876708984375 672.341064453125"><title>Neo4j Graph Visualization</title><desc>Created using Neo4j (http://www.neo4j.com/)</desc><g class="layer relationships"><g class="relationship" transform="translate(42.35195548355387 164.9919389567663) rotate(290.3771065970616)"><path class="outline" fill="#A5ABB6" stroke="none" d="M 25 0.5 L 44.38867875977037 0.5 L 44.38867875977037 -0.5 L 25 -0.5 Z M 95.29102250977037 0.5 L 114.67970126954074 0.5 L 114.67970126954074 3.5 L 121.67970126954074 0 L 114.67970126954074 -3.5 L 114.67970126954074 -0.5 L 95.29102250977037 -0.5 Z"/><text text-anchor="middle" pointer-events="none" font-size="8px" fill="#000000" x="69.83985063477037" y="3" font-family="sans-serif">Participaram</text></g><g class="relationship" transform="translate(-63.16666329329632 -26.304898668503878) rotate(373.7964139517429)"><path class="outline" fill="#A5ABB6" stroke="none" d="M 25 0.5 L 46.85996487746365 0.5 L 46.85996487746365 -0.5 L 25 -0.5 Z M 97.76230862746365 0.5 L 119.6222735049273 0.5 L 119.6222735049273 3.5 L 126.6222735049273 0 L 119.6222735049273 -3.5 L 119.6222735049273 -0.5 L 97.76230862746365 -0.5 Z"/><text text-anchor="middle" pointer-events="none" font-size="8px" fill="#000000" x="72.31113675246365" y="3" font-family="sans-serif">Participaram</text></g><g class="relationship" transform="translate(179.2396580981965 109.67259969979001) rotate(230.058017314052)"><path class="outline" fill="#A5ABB6" stroke="none" d="M 25 0.5 L 26.31345257172562 0.5 L 26.31345257172562 -0.5 L 25 -0.5 Z M 77.21579632172562 0.5 L 78.52924889345124 0.5 L 78.52924889345124 3.5 L 85.52924889345124 0 L 78.52924889345124 -3.5 L 78.52924889345124 -0.5 L 77.21579632172562 -0.5 Z"/><text text-anchor="middle" pointer-events="none" font-size="8px" fill="#000000" x="51.76462444672562" y="3" transform="rotate(180 51.76462444672562 0)" font-family="sans-serif">Participaram</text></g><g class="relationship" transform="translate(-48.44853261093033 87.70092866228117) rotate(333.2102579274954)"><path class="outline" fill="#A5ABB6" stroke="none" d="M 25 0.5 L 45.9407145403961 0.5 L 45.9407145403961 -0.5 L 25 -0.5 Z M 96.8430582903961 0.5 L 117.7837728307922 0.5 L 117.7837728307922 3.5 L 124.7837728307922 0 L 117.7837728307922 -3.5 L 117.7837728307922 -0.5 L 96.8430582903961 -0.5 Z"/><text text-anchor="middle" pointer-events="none" font-size="8px" fill="#000000" x="71.3918864153961" y="3" font-family="sans-serif">Participaram</text></g><g class="relationship" transform="translate(160.00755475697844 166.49564722732563) rotate(248.15573237770315)"><path class="outline" fill="#A5ABB6" stroke="none" d="M 25 0.5 L 46.001916506197276 0.5 L 46.001916506197276 -0.5 L 25 -0.5 Z M 96.90426025619728 0.5 L 117.90617676239455 0.5 L 117.90617676239455 3.5 L 124.90617676239455 0 L 117.90617676239455 -3.5 L 117.90617676239455 -0.5 L 96.90426025619728 -0.5 Z"/><text text-anchor="middle" pointer-events="none" font-size="8px" fill="#000000" x="71.45308838119728" y="3" transform="rotate(180 71.45308838119728 0)" font-family="sans-serif">Participaram</text></g><g class="relationship" transform="translate(239.11274611906956 105.97249147473008) rotate(213.3782107311722)"><path class="outline" fill="#A5ABB6" stroke="none" d="M 25 0.5 L 47.65344356945599 0.5 L 47.65344356945599 -0.5 L 25 -0.5 Z M 98.55578731945599 0.5 L 121.20923088891197 0.5 L 121.20923088891197 3.5 L 128.20923088891197 0 L 121.20923088891197 -3.5 L 121.20923088891197 -0.5 L 98.55578731945599 -0.5 Z"/><text text-anchor="middle" pointer-events="none" font-size="8px" fill="#000000" x="73.10461544445599" y="3" transform="rotate(180 73.10461544445599 0)" font-family="sans-serif">Participaram</text></g><g class="relationship" transform="translate(239.32998203564821 45.96487584552923) rotate(193.02165850243364)"><path class="outline" fill="#A5ABB6" stroke="none" d="M 25 0.5 L 35.74616366675778 0.5 L 35.74616366675778 -0.5 L 25 -0.5 Z M 86.64850741675778 0.5 L 97.39467108351556 0.5 L 97.39467108351556 3.5 L 104.39467108351556 0 L 97.39467108351556 -3.5 L 97.39467108351556 -0.5 L 86.64850741675778 -0.5 Z"/><text text-anchor="middle" pointer-events="none" font-size="8px" fill="#000000" x="61.19733554175778" y="3" transform="rotate(180 61.19733554175778 0)" font-family="sans-serif">Participaram</text></g><g class="relationship" transform="translate(257.5527240623922 -11.178410841064082) rotate(531.1969412878864)"><path class="outline" fill="#A5ABB6" stroke="none" d="M 25 0.5 L 43.948063244796145 0.5 L 43.948063244796145 -0.5 L 25 -0.5 Z M 94.85040699479615 0.5 L 113.79847023959229 0.5 L 113.79847023959229 3.5 L 120.79847023959229 0 L 113.79847023959229 -3.5 L 113.79847023959229 -0.5 L 94.85040699479615 -0.5 Z"/><text text-anchor="middle" pointer-events="none" font-size="8px" fill="#000000" x="69.39923511979615" y="3" transform="rotate(180 69.39923511979615 0)" font-family="sans-serif">Participaram</text></g><g class="relationship" transform="translate(226.30329471693457 -62.39580785753953) rotate(509.29009420589637)"><path class="outline" fill="#A5ABB6" stroke="none" d="M 25 0.5 L 37.787148407712564 0.5 L 37.787148407712564 -0.5 L 25 -0.5 Z M 88.68949215771256 0.5 L 101.47664056542513 0.5 L 101.47664056542513 3.5 L 108.47664056542513 0 L 101.47664056542513 -3.5 L 101.47664056542513 -0.5 L 88.68949215771256 -0.5 Z"/><text text-anchor="middle" pointer-events="none" font-size="8px" fill="#000000" x="63.238320282712564" y="3" transform="rotate(180 63.238320282712564 0)" font-family="sans-serif">Participaram</text></g><g class="relationship" transform="translate(189.89588527094187 -110.07728410301968) rotate(486.4570810215594)"><path class="outline" fill="#A5ABB6" stroke="none" d="M 25 0.5 L 40.32795682754548 0.5 L 40.32795682754548 -0.5 L 25 -0.5 Z M 91.23030057754548 0.5 L 106.55825740509096 0.5 L 106.55825740509096 3.5 L 113.55825740509096 0 L 106.55825740509096 -3.5 L 106.55825740509096 -0.5 L 91.23030057754548 -0.5 Z"/><text text-anchor="middle" pointer-events="none" font-size="8px" fill="#000000" x="65.77912870254548" y="3" transform="rotate(180 65.77912870254548 0)" font-family="sans-serif">Participaram</text></g><g class="relationship" transform="translate(17.007555393642107 -115.53883898679672) rotate(417.66504144357725)"><path class="outline" fill="#A5ABB6" stroke="none" d="M 25 0.5 L 39.86753973738806 0.5 L 39.86753973738806 -0.5 L 25 -0.5 Z M 90.76988348738806 0.5 L 105.63742322477611 0.5 L 105.63742322477611 3.5 L 112.63742322477611 0 L 105.63742322477611 -3.5 L 105.63742322477611 -0.5 L 90.76988348738806 -0.5 Z"/><text text-anchor="middle" pointer-events="none" font-size="8px" fill="#000000" x="65.31871161238806" y="3" font-family="sans-serif">Participaram</text></g><g class="relationship" transform="translate(133.9958003497259 -131.87263289455106) rotate(463.67261040215834)"><path class="outline" fill="#A5ABB6" stroke="none" d="M 25 0.5 L 38.31894348478038 0.5 L 38.31894348478038 -0.5 L 25 -0.5 Z M 89.22128723478038 0.5 L 102.54023071956075 0.5 L 102.54023071956075 3.5 L 109.54023071956075 0 L 102.54023071956075 -3.5 L 102.54023071956075 -0.5 L 89.22128723478038 -0.5 Z"/><text text-anchor="middle" pointer-events="none" font-size="8px" fill="#000000" x="63.77011535978038" y="3" transform="rotate(180 63.77011535978038 0)" font-family="sans-serif">Participaram</text></g><g class="relationship" transform="translate(74.0423907382071 -134.17351534414962) rotate(440.5356173634254)"><path class="outline" fill="#A5ABB6" stroke="none" d="M 25 0.5 L 38.369017719288806 0.5 L 38.369017719288806 -0.5 L 25 -0.5 Z M 89.2713614692888 0.5 L 102.64037918857761 0.5 L 102.64037918857761 3.5 L 109.64037918857761 0 L 102.64037918857761 -3.5 L 102.64037918857761 -0.5 L 89.2713614692888 -0.5 Z"/><text text-anchor="middle" pointer-events="none" font-size="8px" fill="#000000" x="63.820189594288806" y="3" font-family="sans-serif">Participaram</text></g><g class="relationship" transform="translate(-22.380247182375253 -70.27455351692576) rotate(394.6680813249941)"><path class="outline" fill="#A5ABB6" stroke="none" d="M 25 0.5 L 37.125973561815144 0.5 L 37.125973561815144 -0.5 L 25 -0.5 Z M 88.02831731181514 0.5 L 100.15429087363029 0.5 L 100.15429087363029 3.5 L 107.15429087363029 0 L 100.15429087363029 -3.5 L 100.15429087363029 -0.5 L 88.02831731181514 -0.5 Z"/><text text-anchor="middle" pointer-events="none" font-size="8px" fill="#000000" x="62.577145436815144" y="3" font-family="sans-serif">Participaram</text></g><g class="relationship" transform="translate(-38.794198676378635 28.487914239787308) rotate(353.7477186923003)"><path class="outline" fill="#A5ABB6" stroke="none" d="M 25 0.5 L 32.68134023477063 0.5 L 32.68134023477063 -0.5 L 25 -0.5 Z M 83.58368398477063 0.5 L 91.26502421954126 0.5 L 91.26502421954126 3.5 L 98.26502421954126 0 L 91.26502421954126 -3.5 L 91.26502421954126 -0.5 L 83.58368398477063 -0.5 Z"/><text text-anchor="middle" pointer-events="none" font-size="8px" fill="#000000" x="58.13251210977063" y="3" font-family="sans-serif">Participaram</text></g><g class="relationship" transform="translate(101.32174744230296 154.0068707713982) rotate(268.9105493855137)"><path class="outline" fill="#A5ABB6" stroke="none" d="M 25 0.5 L 33.84999152411504 0.5 L 33.84999152411504 -0.5 L 25 -0.5 Z M 84.75233527411504 0.5 L 93.60232679823008 0.5 L 93.60232679823008 3.5 L 100.60232679823008 0 L 93.60232679823008 -3.5 L 93.60232679823008 -0.5 L 84.75233527411504 -0.5 Z"/><text text-anchor="middle" pointer-events="none" font-size="8px" fill="#000000" x="59.30116339911504" y="3" transform="rotate(180 59.30116339911504 0)" font-family="sans-serif">Participaram</text></g><g class="relationship" transform="translate(1.2861002423140473 121.26219400090328) rotate(312.0790562710094)"><path class="outline" fill="#A5ABB6" stroke="none" d="M 25 0.5 L 36.19043626817579 0.5 L 36.19043626817579 -0.5 L 25 -0.5 Z M 87.09278001817579 0.5 L 98.28321628635157 0.5 L 98.28321628635157 3.5 L 105.28321628635157 0 L 98.28321628635157 -3.5 L 98.28321628635157 -0.5 L 87.09278001817579 -0.5 Z"/><text text-anchor="middle" pointer-events="none" font-size="8px" fill="#000000" x="61.64160814317579" y="3" font-family="sans-serif">Participaram</text></g></g><g class="layer nodes"><g class="node" transform="translate(42.35195548355387,164.9919389567663)"><circle class="outline" cx="0" cy="0" r="25" fill="#FFC454" stroke="#d7a013" stroke-width="2px"/><text text-anchor="middle" pointer-events="none" font-family="sans-serif" dy="1.5625" font-size="25" fill="#2A2C34"/><text text-anchor="middle" pointer-events="none" x="0" y="5" font-size="10px" fill="#2A2C34" font-family="sans-serif"> Brasil</text></g><g class="node" transform="translate(-63.16666329329632,-26.304898668503878)"><circle class="outline" cx="0" cy="0" r="25" fill="#FFC454" stroke="#d7a013" stroke-width="2px"/><text text-anchor="middle" pointer-events="none" font-family="sans-serif" dy="1.5625" font-size="25" fill="#2A2C34"/><text text-anchor="middle" pointer-events="none" x="0" y="5" font-size="10px" fill="#2A2C34" font-family="sans-serif"> Hungria</text></g><g class="node" transform="translate(179.2396580981965,109.67259969979001)"><circle class="outline" cx="0" cy="0" r="25" fill="#FFC454" stroke="#d7a013" stroke-width="2px"/><text text-anchor="middle" pointer-events="none" font-family="sans-serif" dy="1.5625" font-size="25" fill="#2A2C34"/><text text-anchor="middle" pointer-events="none" font-family="sans-serif" dy="1.5625" font-size="25" fill="#2A2C34"/><text text-anchor="middle" pointer-events="none" x="0" y="0" font-size="10px" fill="#2A2C34" font-family="sans-serif"> Estados</text><text text-anchor="middle" pointer-events="none" x="0" y="10" font-size="10px" fill="#2A2C34" font-family="sans-serif"> Unidos</text></g><g class="node" transform="translate(-48.44853261093033,87.70092866228117)"><circle class="outline" cx="0" cy="0" r="25" fill="#FFC454" stroke="#d7a013" stroke-width="2px"/><text text-anchor="middle" pointer-events="none" font-family="sans-serif" dy="1.5625" font-size="25" fill="#2A2C34"/><text text-anchor="middle" pointer-events="none" x="0" y="5" font-size="10px" fill="#2A2C34" font-family="sans-serif"> França</text></g><g class="node" transform="translate(160.00755475697844,166.49564722732563)"><circle class="outline" cx="0" cy="0" r="25" fill="#FFC454" stroke="#d7a013" stroke-width="2px"/><text text-anchor="middle" pointer-events="none" font-family="sans-serif" dy="1.5625" font-size="25" fill="#2A2C34"/><text text-anchor="middle" pointer-events="none" font-family="sans-serif" dy="1.5625" font-size="25" fill="#2A2C34"/><text text-anchor="middle" pointer-events="none" x="0" y="0" font-size="10px" fill="#2A2C34" font-family="sans-serif"> Reino</text><text text-anchor="middle" pointer-events="none" x="0" y="10" font-size="10px" fill="#2A2C34" font-family="sans-serif"> Unido</text></g><g class="node" transform="translate(239.11274611906956,105.97249147473008)"><circle class="outline" cx="0" cy="0" r="25" fill="#FFC454" stroke="#d7a013" stroke-width="2px"/><text text-anchor="middle" pointer-events="none" font-family="sans-serif" dy="1.5625" font-size="25" fill="#2A2C34"/><text text-anchor="middle" pointer-events="none" x="0" y="5" font-size="10px" fill="#2A2C34" font-family="sans-serif"> Turquia</text></g><g class="node" transform="translate(239.32998203564821,45.96487584552923)"><circle class="outline" cx="0" cy="0" r="25" fill="#FFC454" stroke="#d7a013" stroke-width="2px"/><text text-anchor="middle" pointer-events="none" font-family="sans-serif" dy="1.5625" font-size="25" fill="#2A2C34"/><text text-anchor="middle" pointer-events="none" x="0" y="5" font-size="10px" fill="#2A2C34" font-family="sans-serif"> Itália</text></g><g class="node" transform="translate(257.5527240623922,-11.178410841064082)"><circle class="outline" cx="0" cy="0" r="25" fill="#FFC454" stroke="#d7a013" stroke-width="2px"/><text text-anchor="middle" pointer-events="none" font-family="sans-serif" dy="1.5625" font-size="25" fill="#2A2C34"/><text text-anchor="middle" pointer-events="none" x="0" y="5" font-size="10px" fill="#2A2C34" font-family="sans-serif"> Japão</text></g><g class="node" transform="translate(226.30329471693457,-62.39580785753953)"><circle class="outline" cx="0" cy="0" r="25" fill="#FFC454" stroke="#d7a013" stroke-width="2px"/><text text-anchor="middle" pointer-events="none" font-family="sans-serif" dy="1.5625" font-size="25" fill="#2A2C34"/><text text-anchor="middle" pointer-events="none" x="0" y="5" font-size="10px" fill="#2A2C34" font-family="sans-serif"> Luxemb…</text></g><g class="node" transform="translate(189.89588527094187,-110.07728410301968)"><circle class="outline" cx="0" cy="0" r="25" fill="#FFC454" stroke="#d7a013" stroke-width="2px"/><text text-anchor="middle" pointer-events="none" font-family="sans-serif" dy="1.5625" font-size="25" fill="#2A2C34"/><text text-anchor="middle" pointer-events="none" font-family="sans-serif" dy="1.5625" font-size="25" fill="#2A2C34"/><text text-anchor="middle" pointer-events="none" x="0" y="0" font-size="10px" fill="#2A2C34" font-family="sans-serif"> Países</text><text text-anchor="middle" pointer-events="none" x="0" y="10" font-size="10px" fill="#2A2C34" font-family="sans-serif"> Baixos</text></g><g class="node" transform="translate(17.007555393642107,-115.53883898679672)"><circle class="outline" cx="0" cy="0" r="25" fill="#FFC454" stroke="#d7a013" stroke-width="2px"/><text text-anchor="middle" pointer-events="none" font-family="sans-serif" dy="1.5625" font-size="25" fill="#2A2C34"/><text text-anchor="middle" pointer-events="none" x="0" y="5" font-size="10px" fill="#2A2C34" font-family="sans-serif"> Portugal</text></g><g class="node" transform="translate(133.9958003497259,-131.87263289455106)"><circle class="outline" cx="0" cy="0" r="25" fill="#FFC454" stroke="#d7a013" stroke-width="2px"/><text text-anchor="middle" pointer-events="none" font-family="sans-serif" dy="1.5625" font-size="25" fill="#2A2C34"/><text text-anchor="middle" pointer-events="none" x="0" y="5" font-size="10px" fill="#2A2C34" font-family="sans-serif"> Roménia</text></g><g class="node" transform="translate(74.0423907382071,-134.17351534414962)"><circle class="outline" cx="0" cy="0" r="25" fill="#FFC454" stroke="#d7a013" stroke-width="2px"/><text text-anchor="middle" pointer-events="none" font-family="sans-serif" dy="1.5625" font-size="25" fill="#2A2C34"/><text text-anchor="middle" pointer-events="none" x="0" y="5" font-size="10px" fill="#2A2C34" font-family="sans-serif"> Rússia</text></g><g class="node" transform="translate(-22.380247182375253,-70.27455351692576)"><circle class="outline" cx="0" cy="0" r="25" fill="#FFC454" stroke="#d7a013" stroke-width="2px"/><text text-anchor="middle" pointer-events="none" font-family="sans-serif" dy="1.5625" font-size="25" fill="#2A2C34"/><text text-anchor="middle" pointer-events="none" x="0" y="5" font-size="10px" fill="#2A2C34" font-family="sans-serif"> Austrália</text></g><g class="node" transform="translate(-38.794198676378635,28.487914239787308)"><circle class="outline" cx="0" cy="0" r="25" fill="#FFC454" stroke="#d7a013" stroke-width="2px"/><text text-anchor="middle" pointer-events="none" font-family="sans-serif" dy="1.5625" font-size="25" fill="#2A2C34"/><text text-anchor="middle" pointer-events="none" x="0" y="5" font-size="10px" fill="#2A2C34" font-family="sans-serif"> Taiuã</text></g><g class="node" transform="translate(-199.43427314350387,357.8670984113748)"><circle class="outline" cx="0" cy="0" r="40" fill="#569480" stroke="#447666" stroke-width="2px"/><text text-anchor="middle" pointer-events="none" font-family="sans-serif" dy="2.5" font-size="40" fill="#FFFFFF"/><text text-anchor="middle" pointer-events="none" x="0" y="5" font-size="10px" fill="#FFFFFF" font-family="sans-serif"> Europeu</text></g><g class="node" transform="translate(208.78008717541235,461.0482003494702)"><circle class="outline" cx="0" cy="0" r="40" fill="#569480" stroke="#447666" stroke-width="2px"/><text text-anchor="middle" pointer-events="none" font-family="sans-serif" dy="2.5" font-size="40" fill="#FFFFFF"/><text text-anchor="middle" pointer-events="none" x="0" y="5" font-size="10px" fill="#FFFFFF" font-family="sans-serif"> Americano</text></g><g class="node" transform="translate(2.9884734218688402,465.1675525130247)"><circle class="outline" cx="0" cy="0" r="40" fill="#569480" stroke="#447666" stroke-width="2px"/><text text-anchor="middle" pointer-events="none" font-family="sans-serif" dy="2.5" font-size="40" fill="#FFFFFF"/><text text-anchor="middle" pointer-events="none" x="0" y="5" font-size="10px" fill="#FFFFFF" font-family="sans-serif"> Asiático</text></g><g class="node" transform="translate(407.5534101906859,346.7465706627543)"><circle class="outline" cx="0" cy="0" r="40" fill="#569480" stroke="#447666" stroke-width="2px"/><text text-anchor="middle" pointer-events="none" font-family="sans-serif" dy="2.5" font-size="40" fill="#FFFFFF"/><text text-anchor="middle" pointer-events="none" x="0" y="5" font-size="10px" fill="#FFFFFF" font-family="sans-serif"> Oceania</text></g><g class="node" transform="translate(98.64842556000838,13.429960678773355)"><circle class="outline" cx="0" cy="0" r="40" fill="#4C8EDA" stroke="#2870c2" stroke-width="2px"/><text text-anchor="middle" pointer-events="none" font-family="sans-serif" dy="2.5" font-size="40" fill="#FFFFFF"/><text text-anchor="middle" pointer-events="none" font-family="sans-serif" dy="2.5" font-size="40" fill="#FFFFFF"/><text text-anchor="middle" pointer-events="none" x="0" y="0" font-size="10px" fill="#FFFFFF" font-family="sans-serif"> Primeira Guerra</text><text text-anchor="middle" pointer-events="none" x="0" y="10" font-size="10px" fill="#FFFFFF" font-family="sans-serif"> Mundial</text></g><g class="node" transform="translate(101.32174744230296,154.0068707713982)"><circle class="outline" cx="0" cy="0" r="25" fill="#FFC454" stroke="#d7a013" stroke-width="2px"/><text text-anchor="middle" pointer-events="none" font-family="sans-serif" dy="1.5625" font-size="25" fill="#2A2C34"/><text text-anchor="middle" pointer-events="none" x="0" y="5" font-size="10px" fill="#2A2C34" font-family="sans-serif"> Áustria</text></g><g class="node" transform="translate(1.2861002423140473,121.26219400090328)"><circle class="outline" cx="0" cy="0" r="25" fill="#FFC454" stroke="#d7a013" stroke-width="2px"/><text text-anchor="middle" pointer-events="none" font-family="sans-serif" dy="1.5625" font-size="25" fill="#2A2C34"/><text text-anchor="middle" pointer-events="none" x="0" y="5" font-size="10px" fill="#2A2C34" font-family="sans-serif"> Alemanha</text></g></g></svg>